<!-- Created with Inkscape (http://www.inkscape.org/) -->
<svg id="svg2" xmlns:rdf="http://www.w3.org/1999/02/22-rdf-syntax-ns#" xmlns="http://www.w3.org/2000/svg" viewBox="0 0 143.59 155.84" version="1.1" xmlns:cc="http://creativecommons.org/ns#" xmlns:dc="http://purl.org/dc/elements/1.1/">
<metadata id="metadata7">
<rdf:RDF>
<cc:Work rdf:about="">
<dc:format>image/svg+xml</dc:format>
<dc:type rdf:resource="http://purl.org/dc/dcmitype/StillImage"/>
<dc:title/>
</cc:Work>
</rdf:RDF>
</metadata>
<g id="g3797" transform="translate(-212.15625,301.3125)">
<path id="arrow-right" style="stroke-linejoin:miter;fill-rule:nonzero;stroke:#ffffff;stroke-linecap:butt;stroke-miterlimit:4;stroke-dasharray:none;stroke-width:0.54100001;fill:#48fd04;" d="m248.1-301.04c-34.034,0-35.656,1.9795-35.656,35.656v84c0,33.32,1.6223,35.656,35.656,35.656h71.719c33.677,0,35.656-1.9795,35.656-35.656v-84c0-34.748-2.3366-35.656-35.656-35.656zm0.625,22.062,39.469,28.688,39.438,28.688-39.969,27.562s-32.839,22.936-39.969,27.594c-4.2858,2.8001-5.8126-1.6058,0.0625-7.1875,3.449-3.2767,19.875-18.812,19.875-18.812l31.062-29.406-30.625-30.719s-15.546-14.825-20.259-19.311c-4.4964-4.2799-4.5704-11.157,0.91508-7.095,4.3546,3.2249,0.00005,0,0.00005,0z"/>
</g>
</svg>
