<?xml version="1.0" encoding="UTF-8" standalone="no"?>
<!-- Created with Inkscape (http://www.inkscape.org/) -->

<svg
   xmlns:dc="http://purl.org/dc/elements/1.1/"
   xmlns:cc="http://creativecommons.org/ns#"
   xmlns:rdf="http://www.w3.org/1999/02/22-rdf-syntax-ns#"
   xmlns:svg="http://www.w3.org/2000/svg"
   xmlns="http://www.w3.org/2000/svg"
   xmlns:sodipodi="http://sodipodi.sourceforge.net/DTD/sodipodi-0.dtd"
   xmlns:inkscape="http://www.inkscape.org/namespaces/inkscape"
   width="143.57225"
   height="155.85349"
   id="svg5411"
   version="1.1"
   inkscape:version="0.48.4 r9939"
   sodipodi:docname="arrow-left.svg">
  <defs
     id="defs5413" />
  <sodipodi:namedview
     id="base"
     pagecolor="#ffffff"
     bordercolor="#666666"
     borderopacity="1.0"
     inkscape:pageopacity="0.0"
     inkscape:pageshadow="2"
     inkscape:zoom="0.35"
     inkscape:cx="217.50042"
     inkscape:cy="-213.50182"
     inkscape:document-units="px"
     inkscape:current-layer="layer1"
     showgrid="false"
     inkscape:window-width="1598"
     inkscape:window-height="872"
     inkscape:window-x="1366"
     inkscape:window-y="26"
     inkscape:window-maximized="0"
     fit-margin-top="0"
     fit-margin-left="0"
     fit-margin-right="0"
     fit-margin-bottom="0" />
  <metadata
     id="metadata5416">
    <rdf:RDF>
      <cc:Work
         rdf:about="">
        <dc:format>image/svg+xml</dc:format>
        <dc:type
           rdf:resource="http://purl.org/dc/dcmitype/StillImage" />
        <dc:title></dc:title>
      </cc:Work>
    </rdf:RDF>
  </metadata>
  <g
     inkscape:label="Layer 1"
     inkscape:groupmode="layer"
     id="layer1"
     transform="translate(-157.49958,-163.00687)">
    <path
       style="fill:#48fd04;fill-opacity:1;fill-rule:nonzero;stroke:#ffffff;stroke-width:0.54100001;stroke-linecap:butt;stroke-linejoin:miter;stroke-miterlimit:4;stroke-opacity:1;stroke-dasharray:none"
       d="m 265.14508,163.27737 c 34.03393,0 35.65625,1.97946 35.65625,35.65625 l 0,83.99999 c 0,33.31964 -1.62232,35.65625 -35.65625,35.65625 l -71.71875,0 c -33.67677,0 -35.65625,-1.97947 -35.65625,-35.65625 l 0,-83.99999 c 1e-5,-34.74822 2.33661,-35.65625 35.65625,-35.65625 z m -0.625,22.0625 -39.46874,28.6875 -39.43751,28.6875 39.96876,27.56249 c 0,0 32.83921,22.93565 39.96874,27.59375 4.28579,2.80013 5.81265,-1.6058 -0.0625,-7.1875 -3.449,-3.27674 -19.87499,-18.8125 -19.87499,-18.8125 l -31.0625,-29.40624 30.625,-30.71875 c 0,0 15.54601,-14.82526 20.25888,-19.31123 4.49638,-4.27991 4.57036,-11.15742 -0.91509,-7.09502 -4.35463,3.22493 -5e-5,0 -5e-5,0 z"
       id="arrow-left"
       inkscape:connector-curvature="0"
       inkscape:label="#arrow-left"
       sodipodi:nodetypes="sssssssssccccsscccssc" />
  </g>
</svg>
